<?xml version="1.0" standalone="no"?>
<!DOCTYPE svg PUBLIC "-//W3C//DTD SVG 20010904//EN"
 "http://www.w3.org/TR/2001/REC-SVG-20010904/DTD/svg10.dtd">
<svg version="1.0" xmlns="http://www.w3.org/2000/svg"
 width="300.000000pt" height="321.000000pt" viewBox="0 0 300.000000 321.000000"
 preserveAspectRatio="xMidYMid meet">
<metadata>
Created by potrace 1.10, written by Peter Selinger 2001-2011
</metadata>
<g transform="translate(0.000000,321.000000) scale(0.100000,-0.100000)"
fill="#000000" stroke="none">
<path d="M1365 3160 c-138 -19 -260 -78 -398 -194 -43 -36 -88 -68 -100 -72
-12 -4 -34 -15 -48 -25 -15 -10 -39 -23 -55 -29 -26 -9 -27 -9 -11 4 17 13 15
14 -20 12 -22 -2 -61 0 -86 4 -26 4 -47 3 -47 -2 0 -4 13 -8 28 -8 16 0 52 -7
81 -16 33 -10 80 -14 122 -12 65 3 83 -2 59 -17 -14 -8 -43 -66 -37 -72 7 -6
57 80 57 99 0 8 11 25 25 38 20 19 23 26 12 39 -9 11 -9 13 0 8 7 -5 16 1 22
12 6 11 20 22 31 26 11 3 19 10 17 15 -4 16 214 146 226 134 3 -3 15 0 27 6
32 17 56 21 164 24 98 3 163 -5 200 -25 13 -8 16 -7 11 1 -5 8 -2 9 11 2 11
-6 39 -18 64 -28 67 -27 160 -96 229 -169 57 -62 98 -121 93 -137 -1 -5 2 -8
7 -8 11 0 63 -158 56 -170 -13 -22 96 -213 112 -196 2 2 -7 21 -21 43 -14 21
-36 79 -49 128 -28 101 -65 198 -101 259 -31 53 -147 172 -209 215 -125 85
-321 132 -472 111z m-463 -292 c-7 -7 -16 -13 -20 -14 -4 0 -15 -4 -25 -9 -10
-4 -20 -5 -24 -2 -3 3 10 13 28 21 43 18 57 20 41 4z"/>
<path d="M1545 2913 c-16 -10 -35 -18 -42 -19 -7 -1 -26 -12 -42 -23 -34 -24
-94 -27 -131 -6 -34 19 -49 19 -24 -1 18 -14 18 -15 -4 -4 -17 9 -22 17 -19
32 11 42 -13 1 -31 -52 -11 -30 -22 -53 -26 -50 -4 3 -11 -2 -16 -10 -10 -18
-28 -154 -29 -219 -1 -25 -7 -52 -15 -60 -8 -9 -16 -29 -18 -45 -4 -37 -28
-48 -28 -12 0 14 6 31 13 38 10 9 13 32 10 83 -3 38 0 96 5 128 11 71 -2 75
-18 5 -17 -82 -24 -176 -11 -158 9 12 11 10 11 -11 0 -15 -7 -29 -15 -33 -9
-3 -15 -19 -15 -41 0 -29 -4 -35 -21 -35 -20 0 -21 -3 -15 -58 6 -54 5 -59
-16 -70 l-23 -11 23 0 c17 -1 22 -7 22 -26 0 -17 4 -23 14 -19 8 3 12 13 9 25
-4 13 0 19 10 19 12 0 15 -8 10 -36 -6 -34 -5 -35 21 -28 15 4 26 2 26 -4 0
-6 -8 -12 -17 -14 -12 -2 -14 -6 -7 -10 6 -4 19 -2 28 5 16 12 15 15 -8 39
-16 18 -22 34 -19 48 6 23 38 27 50 6 10 -16 61 -27 69 -14 12 19 32 -14 30
-53 -1 -34 1 -37 12 -22 7 10 10 28 7 41 -5 22 -4 23 32 17 l38 -7 -30 18
c-67 38 -86 45 -137 50 -74 8 -87 12 -68 24 8 6 11 10 5 10 -5 0 -17 -5 -25
-10 -10 -6 -11 -10 -2 -10 6 0 12 -4 12 -10 0 -5 -9 -10 -20 -10 -17 0 -18 3
-10 26 6 14 10 37 10 50 0 20 4 25 22 22 15 -2 23 -11 25 -33 6 -43 13 -44 13
-2 0 34 2 36 28 32 81 -15 156 -24 160 -20 2 2 -14 13 -37 24 -26 14 -59 21
-96 21 l-57 0 7 33 c4 17 8 33 9 34 1 1 36 10 77 19 76 18 350 26 364 12 4 -4
4 -23 1 -42 -6 -30 -14 -39 -51 -55 -25 -11 -45 -22 -45 -25 0 -3 20 -3 43 0
l44 6 -5 -31 c-2 -17 -8 -31 -12 -31 -5 0 -6 9 -3 20 3 11 0 20 -6 20 -6 0
-11 -13 -11 -29 0 -21 -10 -38 -35 -60 -42 -37 -45 -46 -7 -28 15 8 37 18 50
21 19 6 22 4 22 -18 0 -23 2 -25 26 -16 33 13 37 13 32 -2 -3 -7 -15 -15 -29
-18 -13 -3 -19 -9 -13 -12 6 -4 22 -1 37 7 14 7 29 10 33 7 4 -4 4 -2 0 5 -4
7 2 21 14 33 11 11 16 20 12 20 -5 0 -12 -3 -16 -7 -11 -12 -69 -10 -82 3 -12
10 -11 54 1 73 3 6 18 12 33 12 24 2 25 2 4 6 -36 7 -20 27 28 35 24 4 45 7
45 5 1 -1 5 -14 9 -29 6 -26 4 -28 -28 -28 -52 0 -86 -19 -86 -47 0 -20 3 -23
28 -17 36 9 63 23 43 24 -8 0 -11 3 -8 6 4 4 13 1 22 -6 19 -16 47 -6 39 15
-11 27 5 16 21 -15 8 -16 15 -40 15 -55 0 -14 5 -25 10 -25 6 0 10 -5 10 -11
0 -6 -6 -9 -12 -6 -7 2 -21 -2 -30 -11 -12 -10 -18 -11 -18 -4 0 7 -7 12 -15
12 -8 0 -15 -5 -15 -11 0 -6 -16 -10 -37 -8 -21 1 -53 -4 -72 -12 l-33 -14 60
-53 c33 -28 64 -52 69 -52 4 0 -14 20 -41 43 -67 59 -60 74 34 75 45 1 80 6
94 16 l23 14 1 -101 c1 -112 -11 -171 -40 -192 -19 -12 -19 -13 4 -29 22 -16
23 -15 29 7 4 13 15 37 25 53 15 23 15 26 3 16 -15 -11 -15 -8 -6 30 15 66 28
98 38 92 5 -3 6 2 3 11 -4 8 -1 21 5 28 24 30 44 156 50 321 1 37 11 28 18
-16 2 -18 9 -53 13 -78 7 -36 5 -49 -7 -63 -13 -14 -14 -22 -5 -40 7 -12 14
-39 16 -61 7 -55 16 -57 16 -3 0 25 2 51 3 59 2 7 2 10 0 5 -6 -9 -23 1 -23
14 0 5 6 9 13 9 27 0 -9 192 -78 410 l-15 45 7 -60 c3 -33 9 -91 13 -130 6
-54 7 -60 9 -26 0 24 3 42 6 39 3 -3 1 -75 -4 -159 -10 -146 -34 -269 -52
-269 -5 0 -9 -6 -9 -14 0 -8 -4 -17 -9 -20 -5 -3 -6 14 -4 37 4 30 -2 65 -20
115 -14 40 -21 72 -16 72 5 0 9 9 9 20 0 11 -3 19 -7 19 -23 -4 -43 2 -38 11
3 5 1 18 -4 29 -9 17 -7 20 19 26 16 4 34 4 40 0 5 -3 10 -2 10 3 0 5 -20 13
-45 17 -25 3 -43 11 -40 16 4 5 11 6 17 3 8 -5 9 -1 5 10 -4 10 -7 23 -8 29 0
7 -4 3 -8 -7 -7 -18 -8 -18 -14 -2 -4 10 -1 19 7 22 10 4 9 22 -5 97 -10 51
-18 113 -18 139 -1 87 -18 58 -26 -45 -5 -56 -9 -118 -10 -137 0 -19 -6 -45
-13 -57 -7 -12 -12 -28 -12 -37 0 -8 -3 -17 -7 -19 -5 -3 -7 23 -6 56 6 153 2
218 -16 262 -5 11 -17 48 -26 83 -10 34 -21 62 -24 62 -3 -1 -19 -8 -36 -17z
m35 -33 c0 -16 -7 -20 -37 -20 -38 0 -38 5 -1 26 33 17 38 17 38 -6z m19 -55
c14 -13 14 -15 0 -15 -8 0 -20 5 -25 10 -6 6 -38 11 -72 11 -36 1 -62 6 -62
12 0 16 140 1 159 -18z m-242 0 c-43 -7 -85 -16 -93 -19 -8 -3 -14 -1 -14 4 0
5 17 12 38 15 20 4 42 8 47 10 6 2 30 3 55 3 37 0 31 -2 -33 -13z m208 -29
l50 -11 1 -53 c0 -28 4 -55 7 -59 4 -3 7 -32 7 -63 0 -44 -3 -57 -15 -57 -8 0
-15 4 -15 8 0 4 -10 5 -22 2 -19 -4 -20 -3 -8 7 21 15 -287 9 -316 -7 -37 -21
-49 -1 -48 78 0 43 5 74 13 78 6 4 9 14 6 23 -9 24 18 39 97 53 90 16 177 17
243 1z m155 -186 c1 8 6 -5 10 -30 9 -53 -1 -71 -21 -38 -11 16 -13 41 -10 83
l5 60 7 -45 c3 -25 7 -38 9 -30z m-417 -57 c-7 -2 -19 -2 -25 0 -7 3 -2 5 12
5 14 0 19 -2 13 -5z m417 -52 c0 -3 3 -15 6 -26 4 -17 0 -20 -25 -20 -32 0
-35 5 -25 41 4 15 11 20 25 17 10 -3 19 -8 19 -12z m-70 -55 c0 -2 -7 -9 -15
-16 -13 -11 -14 -10 -9 4 5 14 24 23 24 12z m117 -2 c-3 -3 -12 -4 -19 -1 -8
3 -5 6 6 6 11 1 17 -2 13 -5z m-671 -50 c-3 -9 -6 -23 -7 -32 -1 -10 -4 -7 -8
8 -9 28 -5 40 11 40 5 0 7 -7 4 -16z m507 -69 c-3 -9 -8 -14 -10 -11 -3 3 -2
9 2 15 9 16 15 13 8 -4z"/>
<path d="M1490 2773 c0 -5 -12 -8 -28 -5 -30 4 -82 -29 -82 -53 0 -13 -30 -25
-67 -25 -13 0 -23 -4 -23 -10 0 -5 19 -8 45 -5 34 3 45 0 45 -11 0 -8 3 -14 8
-14 4 0 7 16 7 36 0 47 44 86 74 67 16 -10 20 -9 25 4 4 9 4 18 1 21 -3 3 -5
1 -5 -5z"/>
<path d="M1417 2722 c-37 -41 -9 -77 37 -47 29 19 35 6 10 -20 -10 -10 -26
-14 -37 -11 -12 3 -27 0 -34 -6 -18 -15 -66 -1 -59 17 3 8 1 15 -4 15 -19 0
-19 -18 0 -35 36 -33 160 0 160 42 0 11 11 14 45 12 24 -2 47 0 51 4 4 4 -15
7 -42 7 -38 0 -52 4 -62 20 -15 25 -44 26 -65 2z m60 -9 c3 -7 -7 -11 -26 -11
-32 1 -41 12 -18 21 18 8 40 3 44 -10z m-47 -33 c0 -5 -2 -10 -4 -10 -3 0 -8
5 -11 10 -3 6 -1 10 4 10 6 0 11 -4 11 -10z"/>
<path d="M1220 2600 c0 -5 5 -10 10 -10 6 0 10 5 10 10 0 6 -4 10 -10 10 -5 0
-10 -4 -10 -10z"/>
<path d="M930 2823 c-36 -65 -69 -105 -81 -98 -12 8 -66 -155 -79 -239 -12
-78 -6 -251 10 -276 4 -7 5 19 2 58 -5 81 10 202 40 315 24 93 35 97 14 6 -41
-182 -22 -379 49 -483 12 -18 26 -45 29 -57 5 -17 1 -14 -12 9 l-18 33 -26
-21 c-55 -42 -168 -247 -168 -303 0 -34 -42 -25 -131 28 -85 51 -91 53 -117
39 -15 -7 -49 -14 -77 -14 -27 -1 -66 -7 -86 -14 -45 -16 -139 -94 -133 -109
6 -16 192 -13 207 2 16 16 31 13 18 -3 -16 -19 3 -30 28 -16 29 15 32 13 25
-15 -14 -56 17 -95 46 -60 7 9 15 13 18 11 2 -3 20 1 40 10 19 8 44 12 54 8
11 -3 50 0 86 6 98 18 98 18 76 35 -18 14 -17 14 13 9 22 -5 41 -1 59 11 30
19 23 32 -21 37 -27 3 -23 6 35 27 97 35 122 64 80 94 -19 13 -19 13 1 30 21
19 18 37 -8 37 -12 0 -9 8 11 34 25 33 25 38 15 88 -6 29 -15 57 -19 62 -5 5
-6 15 -3 24 5 11 3 13 -7 7 -10 -6 -12 -3 -8 13 4 12 2 20 -2 17 -8 -5 -18 15
-27 55 -12 47 -14 326 -3 403 13 96 30 123 74 122 16 -1 38 6 49 15 20 16 19
17 -8 38 -25 20 -27 25 -16 48 23 50 3 35 -29 -23z m34 -34 c-2 -4 2 -9 8 -12
7 -2 9 -8 5 -13 -5 -5 -14 -1 -22 9 -11 15 -13 16 -19 2 -3 -8 -10 -15 -16
-15 -7 0 -8 6 0 19 5 11 19 19 29 18 11 0 18 -4 15 -8z m-66 -768 c8 -23 6
-34 -8 -57 -15 -21 -16 -32 -8 -48 8 -15 7 -22 -8 -33 -10 -7 -21 -13 -26 -13
-4 0 -8 -8 -8 -17 0 -15 2 -14 16 3 12 15 14 15 11 2 -4 -10 1 -18 14 -21 32
-8 22 -21 -36 -46 -58 -25 -91 -53 -81 -70 6 -9 -19 -23 -92 -51 -18 -7 -52
-10 -78 -7 -31 3 -49 0 -59 -10 -10 -10 -15 -11 -15 -2 0 9 -4 8 -15 -1 -8 -7
-15 -9 -15 -5 0 4 -6 2 -13 -4 -18 -14 -27 -4 -27 29 0 19 -7 30 -26 38 -14 7
-23 8 -19 2 3 -6 -1 -7 -9 -4 -9 3 -16 10 -16 16 0 5 -4 6 -10 3 -5 -3 -43 -8
-85 -10 -58 -3 -75 0 -75 10 0 8 5 17 12 21 7 5 8 3 3 -7 -5 -8 3 -2 17 13 14
15 41 29 59 32 180 26 176 26 227 -1 26 -14 54 -31 63 -39 9 -8 33 -17 52 -21
46 -7 62 8 87 84 26 75 58 138 81 159 11 10 19 22 19 27 0 12 40 57 51 57 4 0
12 -13 17 -29z"/>
<path d="M1914 2857 c18 -53 18 -98 1 -117 -21 -23 -13 -50 15 -50 11 0 22 1
24 3 7 4 46 -35 41 -43 -2 -4 2 -7 10 -7 19 0 19 13 -1 29 -8 7 -23 20 -33 29
-12 11 -24 13 -39 8 -27 -10 -29 6 -4 22 23 15 21 89 -4 122 -12 16 -15 17
-10 4z"/>
<path d="M1966 2819 c18 -28 42 -73 51 -100 10 -27 21 -49 25 -49 5 0 9 -10 9
-22 1 -15 3 -17 6 -7 2 9 -7 41 -21 72 -13 30 -22 58 -18 61 3 3 0 6 -7 6 -7
0 -11 10 -9 22 2 13 -2 23 -9 23 -7 0 -20 10 -28 23 -33 46 -32 20 1 -29z"/>
<path d="M1036 2776 c-3 -11 -5 -32 -5 -46 1 -20 3 -17 11 13 6 20 16 37 23
37 10 0 11 -7 5 -30 -5 -16 -12 -35 -16 -42 -6 -10 -3 -9 9 1 15 12 17 11 18
-5 0 -18 1 -18 9 1 12 28 12 37 0 30 -5 -3 -10 1 -10 10 0 12 6 15 19 10 16
-5 18 -2 13 17 -3 12 -7 17 -10 10 -3 -10 -7 -10 -19 0 -24 20 -41 18 -47 -6z"/>
<path d="M806 2724 c-37 -49 -80 -131 -90 -174 -4 -14 7 4 24 39 16 35 48 90
70 122 48 70 45 78 -4 13z"/>
<path d="M1969 2743 c-13 -16 -12 -17 4 -4 16 13 21 21 13 21 -2 0 -10 -8 -17
-17z"/>
<path d="M957 2653 c-31 -99 -39 -143 -27 -143 6 0 5 -11 -1 -27 -6 -17 -7
-46 -3 -73 5 -25 8 -49 9 -55 0 -5 4 -16 8 -22 5 -8 4 -13 -2 -13 -6 0 -11 -9
-11 -20 0 -11 5 -20 12 -20 6 0 8 -3 4 -7 -4 -5 -13 -8 -19 -8 -7 0 -13 -10
-15 -23 -3 -21 -2 -22 17 -10 12 7 21 16 21 20 0 5 5 8 11 8 7 0 10 -12 7 -29
-2 -17 -1 -28 3 -25 4 2 10 -2 12 -8 9 -23 -5 65 -19 123 -25 101 -10 323 27
391 6 12 6 18 0 18 -6 0 -21 -35 -34 -77z"/>
<path d="M1764 2723 c3 -4 1 -12 -5 -20 -9 -10 -8 -13 5 -13 9 0 16 5 16 10 0
18 19 10 25 -11 8 -25 -3 -39 -15 -19 -7 11 -12 12 -21 3 -8 -8 -6 -13 10 -18
11 -3 25 -3 31 0 16 10 11 52 -7 60 -24 11 -46 15 -39 8z"/>
<path d="M599 2601 c-58 -92 -63 -118 -45 -210 9 -44 30 -124 46 -178 l30 -98
-26 -22 c-31 -29 -46 -29 -70 -2 -51 58 -179 118 -226 106 -41 -11 -203 -113
-206 -130 -6 -29 44 -40 155 -33 l102 7 -35 -35 c-33 -33 -44 -69 -24 -81 6
-4 37 12 70 34 l59 41 -6 -30 -5 -30 33 12 c19 6 39 15 46 20 7 5 14 5 18 -2
8 -13 65 -3 86 16 8 7 21 14 28 14 7 0 27 8 44 18 18 9 33 18 35 18 1 1 5 11
7 24 2 12 9 27 14 34 18 22 35 106 23 118 -8 8 -13 7 -18 -6 -5 -13 -9 -14
-14 -6 -11 18 -33 1 -25 -19 14 -32 23 -81 15 -81 -4 0 -13 20 -20 45 -10 36
-10 55 -1 84 6 21 11 46 11 55 0 24 -18 19 -23 -6 -6 -32 2 29 9 76 7 36 6 39
-14 34 -22 -6 -30 6 -13 17 5 3 15 30 22 61 12 51 11 61 -11 125 -13 38 -27
69 -30 69 -3 -1 -21 -27 -41 -59z m57 -47 c4 -32 1 -65 -10 -106 -13 -47 -14
-63 -4 -81 6 -12 13 -60 15 -106 1 -46 8 -90 13 -97 6 -7 12 -34 13 -60 2 -42
-1 -49 -23 -60 -14 -6 -43 -20 -64 -30 -51 -24 -136 -27 -153 -5 -11 14 -17
13 -65 -13 -52 -30 -53 -30 -35 -5 47 65 35 74 -98 72 -58 -1 -105 2 -105 6 0
13 168 101 193 101 33 0 127 -50 180 -95 49 -42 77 -41 119 5 24 26 26 33 17
62 -52 170 -79 295 -75 335 5 41 48 123 66 123 5 0 12 -21 16 -46z"/>
<path d="M910 2604 c-31 -81 -53 -334 -29 -334 5 0 8 -4 5 -8 -2 -4 -1 -14 5
-22 10 -17 12 -5 10 60 -2 102 -2 132 3 148 3 9 8 46 10 82 3 36 8 73 11 83 4
9 4 17 1 17 -4 0 -11 -12 -16 -26z"/>
<path d="M2023 2615 c0 -8 4 -12 9 -9 5 3 6 10 3 15 -9 13 -12 11 -12 -6z"/>
<path d="M2067 2570 c3 -19 8 -37 12 -40 4 -3 11 -14 14 -24 6 -16 5 -17 -8
-6 -20 16 -20 -4 0 -24 17 -17 20 -36 5 -36 -5 0 -10 -10 -9 -22 0 -22 1 -22
9 -3 5 13 8 -7 9 -60 1 -167 17 -212 91 -258 l34 -21 -33 -7 c-18 -4 -40 -14
-48 -22 -14 -14 -12 -17 17 -32 17 -9 38 -14 47 -11 11 5 13 1 7 -16 -5 -18
-3 -20 12 -14 15 6 17 5 7 -5 -21 -21 -15 -32 17 -27 21 3 30 0 30 -10 0 -10
8 -12 28 -8 31 7 52 -7 70 -47 15 -34 39 -31 33 4 -3 23 -2 23 16 7 11 -10 27
-18 36 -18 9 0 17 -5 17 -11 0 -6 -9 -8 -22 -4 -22 6 -22 5 -3 -6 11 -6 29
-19 40 -28 18 -15 19 -15 7 0 -21 28 16 34 39 7 16 -20 20 -21 29 -8 6 8 8 23
6 33 -4 18 9 24 19 7 9 -15 68 -13 63 2 -7 21 -70 28 -101 13 -24 -12 -29 -12
-34 1 -5 13 -7 13 -14 2 -7 -10 -9 -10 -9 0 0 6 -8 12 -17 12 -10 0 -30 6 -45
14 -20 10 -29 11 -39 2 -9 -8 -11 -7 -6 7 4 10 3 16 -2 13 -4 -3 -16 3 -25 13
-10 11 -25 17 -36 14 -23 -6 -57 12 -88 48 -13 16 -34 29 -45 29 -19 0 -17 3
11 20 17 11 32 22 32 25 0 3 -19 25 -43 48 -24 23 -51 54 -60 69 l-17 28 52
-21 c29 -11 60 -26 68 -34 8 -7 25 -16 37 -19 23 -7 33 -33 47 -117 12 -69 41
-74 166 -31 49 17 103 28 127 27 37 -1 48 -8 92 -55 28 -30 47 -58 44 -63 -3
-6 -1 -7 5 -3 7 4 17 4 23 0 8 -4 7 -9 -2 -14 -8 -5 -25 2 -46 17 -45 35 -52
23 -13 -21 37 -41 66 -46 101 -16 l24 20 -30 22 c-16 12 -58 51 -93 86 l-62
64 -53 -7 c-28 -4 -91 -20 -139 -36 -48 -16 -94 -26 -102 -23 -8 3 -16 27 -20
59 -10 91 -19 101 -133 157 -85 41 -103 53 -98 68 22 70 -1 290 -30 290 -8 0
-16 8 -18 18 -2 9 -2 1 0 -18z"/>
<path d="M2040 2574 c0 -14 -2 -15 -17 -3 -11 9 -9 2 7 -21 30 -45 35 -50 25
-25 -4 11 -7 30 -6 43 0 12 -1 22 -4 22 -3 0 -5 -7 -5 -16z"/>
<path d="M2186 2581 c-3 -5 4 -20 15 -35 11 -14 17 -26 14 -26 -15 0 20 -32
54 -50 28 -15 31 -19 15 -20 -11 0 -29 -8 -38 -19 -16 -17 -16 -20 -1 -35 9
-9 32 -16 50 -16 27 0 33 -3 28 -16 -4 -10 1 -17 15 -21 11 -2 23 -14 25 -25
5 -16 11 -19 32 -14 18 5 24 3 20 -4 -8 -13 14 -42 26 -34 5 3 9 1 9 -3 0 -15
92 -75 106 -69 17 6 18 30 4 57 -13 23 -1 24 66 8 35 -9 48 -9 57 0 9 9 6 16
-13 31 l-25 20 40 0 c74 1 111 57 53 79 -22 9 -22 9 7 16 88 20 153 52 184 89
22 26 1 37 -70 37 -132 -1 -227 -43 -329 -146 -30 -30 -57 -55 -60 -55 -4 0
-12 35 -18 77 -7 43 -20 93 -30 113 -16 33 -20 35 -67 35 -27 1 -64 8 -82 18
-34 18 -78 22 -87 8z m97 -46 c23 -11 49 -15 66 -12 43 9 61 -18 73 -108 11
-81 30 -117 57 -107 18 6 85 62 76 62 -4 0 13 16 37 35 50 40 129 81 173 88
17 3 44 9 62 12 17 4 39 2 50 -4 17 -10 17 -11 -4 -17 -13 -3 -21 -10 -18 -13
2 -4 -1 -8 -8 -9 -55 -5 -147 -43 -147 -61 0 -4 9 -17 20 -28 16 -18 17 -22 4
-27 -9 -3 -24 -6 -35 -6 -24 0 -62 -37 -53 -51 4 -8 0 -7 -14 0 -34 18 -60 13
-79 -16 -9 -16 -18 -30 -19 -32 -2 -2 -16 6 -31 18 -15 12 -41 32 -57 44 -17
12 -50 41 -74 65 -24 23 -50 42 -58 42 -18 0 -18 8 2 27 14 15 11 20 -30 60
-25 24 -46 48 -46 54 0 6 3 8 8 6 4 -2 24 -12 45 -22z"/>
<path d="M2053 2445 c0 -33 2 -45 4 -27 2 18 2 45 0 60 -2 15 -4 0 -4 -33z"/>
<path d="M1051 2474 c0 -11 3 -14 6 -6 3 7 2 16 -1 19 -3 4 -6 -2 -5 -13z"/>
<path d="M482 2435 c0 -16 2 -22 5 -12 2 9 2 23 0 30 -3 6 -5 -1 -5 -18z"/>
<path d="M1045 2431 c-3 -12 -10 -21 -15 -21 -5 0 -6 -7 -3 -17 4 -10 2 -14
-4 -10 -7 5 -9 -1 -5 -15 3 -12 1 -19 -4 -15 -6 3 -10 -23 -10 -66 0 -40 -2
-92 -5 -116 -3 -32 0 -46 10 -49 8 -3 11 0 7 7 -4 6 -3 11 2 11 14 0 21 -35
23 -118 2 -66 5 -76 31 -102 34 -35 37 -63 6 -58 -33 5 -81 90 -87 157 l-5 56
-7 -45 -6 -45 -1 54 c-1 30 -5 51 -9 48 -3 -4 -12 1 -19 11 -19 24 -17 4 6
-72 11 -36 47 -110 79 -165 64 -108 78 -141 62 -141 -6 0 -11 -7 -11 -15 0 -9
9 -15 23 -15 18 0 19 2 7 10 -12 7 -12 10 -1 10 8 0 11 6 7 16 -3 8 -2 12 4 9
18 -11 11 10 -20 58 -34 54 -34 55 -17 54 37 -1 49 4 43 18 -3 8 -1 15 4 15 5
0 11 -8 14 -17 3 -10 24 -38 47 -63 40 -44 43 -40 7 12 -10 14 -18 31 -18 38
0 21 20 -1 45 -51 16 -30 32 -49 43 -49 22 0 109 -33 123 -47 6 -6 11 -37 11
-70 0 -95 -5 -198 -10 -182 -2 8 -10 28 -18 46 -8 17 -14 39 -14 50 0 10 -11
31 -25 47 -17 19 -23 36 -19 51 5 20 -2 25 -66 49 -75 27 -100 32 -100 17 0
-13 26 -21 65 -21 33 0 33 0 21 -33 -17 -49 -47 -84 -81 -92 l-30 -7 21 24
c47 51 53 95 13 85 -15 -4 -19 0 -19 25 0 16 -4 27 -9 24 -5 -4 -8 -18 -6 -32
3 -27 -50 -92 -58 -70 -3 6 -10 -2 -16 -17 -15 -38 -13 -125 3 -162 l13 -30 4
43 c3 24 1 45 -3 48 -3 2 -4 21 -1 42 7 41 58 99 67 76 3 -7 1 -16 -4 -19 -9
-6 -8 -24 3 -42 4 -7 1 -26 -8 -42 -8 -17 -15 -41 -15 -54 0 -29 -64 -102 -81
-91 -8 4 -9 3 -5 -4 4 -7 3 -12 -3 -12 -5 0 -12 -8 -16 -19 -3 -10 -18 -32
-32 -47 -16 -17 -24 -22 -20 -11 3 9 2 17 -4 17 -6 0 -7 5 -3 12 5 8 2 9 -10
5 -10 -4 -20 -7 -22 -7 -2 0 -4 -11 -4 -25 0 -15 6 -25 15 -26 8 -1 23 -2 33
-2 9 -1 23 -10 30 -19 13 -18 15 -17 45 4 47 32 61 58 33 58 -8 0 -23 -12 -34
-27 -15 -21 -24 -25 -32 -17 -8 8 -5 21 14 49 14 21 26 42 26 47 0 5 5 6 10 3
11 -7 40 18 40 34 0 6 4 11 9 11 4 0 18 31 30 68 12 38 28 77 37 88 15 19 15
19 8 -1 -4 -11 -17 -50 -30 -87 -12 -36 -30 -80 -38 -97 -14 -26 -28 -111 -19
-111 5 0 30 65 41 110 6 25 21 68 34 95 12 28 21 54 20 58 -1 5 11 25 27 45
16 20 36 55 45 76 19 45 31 40 52 -21 12 -35 12 -38 -18 -66 -20 -20 -33 -26
-38 -18 -3 7 -7 -3 -7 -21 l0 -32 48 54 47 54 8 -40 c4 -21 12 -48 19 -59 16
-28 -1 -124 -23 -133 -28 -10 -40 -27 -47 -65 -4 -20 -11 -35 -15 -32 -5 3
-11 1 -15 -5 -3 -5 -1 -10 4 -10 6 0 11 -4 11 -10 0 -5 -10 -8 -22 -6 -12 1
-29 -4 -37 -12 -13 -12 -16 -12 -28 4 -33 45 -26 93 34 250 3 7 0 14 -6 14 -6
0 -11 -8 -11 -18 0 -10 -7 -27 -15 -38 -8 -12 -11 -24 -8 -28 3 -3 2 -6 -4 -6
-5 0 -10 -6 -11 -12 0 -7 -5 -30 -11 -52 -5 -21 -7 -45 -4 -53 3 -7 0 -35 -7
-61 -22 -80 -46 -96 -53 -35 -3 34 -4 33 -6 -12 -2 -38 -4 -45 -11 -30 -9 20
-9 17 -15 -85 -1 -14 -7 -24 -14 -22 -7 1 -10 -1 -7 -6 3 -5 -5 -24 -18 -43
-12 -19 -28 -48 -35 -66 -7 -17 -21 -39 -30 -47 -16 -14 -18 -13 -34 14 -10
16 -17 32 -17 36 1 4 -4 10 -10 14 -7 4 -12 21 -12 36 0 16 -5 32 -10 35 -6 4
-7 12 -4 18 10 16 24 14 22 -3 0 -8 2 -15 7 -15 4 -1 7 1 7 4 0 3 0 11 0 19 0
8 -7 16 -15 20 -19 7 -47 -3 -39 -15 3 -5 3 -9 -1 -9 -11 0 -64 93 -58 103 3
6 1 7 -5 3 -20 -12 -14 34 9 70 11 19 35 38 54 46 24 8 31 15 22 20 -9 6 -9
10 1 16 7 5 20 22 30 39 24 43 80 87 111 88 16 0 26 6 26 15 0 24 -54 14 -94
-18 -20 -16 -51 -52 -70 -80 l-34 -52 -59 0 -59 0 -19 -45 c-39 -91 -62 -361
-33 -385 57 -47 146 -111 150 -106 8 8 -6 25 -57 65 -27 21 -46 42 -42 46 4 5
2 5 -4 2 -26 -15 -37 22 -31 100 3 42 9 79 14 82 13 9 47 90 41 97 -4 3 -19
-18 -34 -46 -31 -57 -44 -54 -20 5 9 20 14 41 11 45 -3 5 -1 11 5 15 5 3 10
21 10 38 l0 32 20 -25 c11 -14 18 -30 15 -37 -2 -6 3 -17 11 -23 8 -7 14 -17
14 -22 0 -5 20 -39 45 -77 25 -38 45 -71 45 -74 0 -3 16 -33 36 -67 35 -60 36
-61 56 -43 11 10 35 47 54 83 37 73 70 118 78 109 4 -3 -8 -23 -25 -45 -24
-30 -27 -40 -16 -42 20 -4 49 -66 45 -95 -2 -17 4 -25 27 -33 44 -16 55 -55
27 -94 -12 -16 -22 -36 -22 -44 0 -9 -11 -18 -25 -22 -21 -5 -23 -9 -14 -25
11 -21 -1 -25 -19 -7 -14 14 -16 52 -2 43 13 -8 50 13 50 29 0 8 7 19 15 26
18 15 20 54 2 68 -20 17 -67 26 -67 13 0 -6 9 -11 19 -11 49 0 68 -33 36 -60
-8 -7 -15 -18 -15 -25 0 -7 -7 -18 -15 -25 -14 -11 -15 -6 -11 46 3 32 3 51 0
41 -3 -9 -9 -17 -13 -17 -4 0 -8 -14 -9 -31 -1 -35 -27 -69 -53 -69 -10 0 -21
-5 -24 -11 -12 -19 3 -21 36 -3 l33 17 -16 -24 c-8 -13 -25 -25 -37 -27 -17
-3 -22 3 -27 27 -6 27 -10 30 -31 25 -16 -4 -28 -2 -33 6 -11 18 -1 40 14 34
7 -3 18 1 25 9 9 12 8 16 -8 20 -11 2 -21 15 -24 28 -4 22 -4 22 -6 -3 0 -16
6 -31 16 -38 16 -10 15 -10 -4 -5 -16 4 -23 1 -28 -15 -8 -27 11 -50 41 -50
14 0 24 -6 24 -14 0 -17 27 -46 41 -46 6 0 21 11 34 25 16 15 25 19 25 10 0
-22 -48 -54 -71 -48 -12 3 -26 18 -33 32 -7 17 -17 25 -28 23 -19 -4 -58 31
-58 52 0 8 6 21 14 29 8 8 12 24 9 41 -4 18 -1 31 8 37 7 4 10 11 7 14 -10 11
-28 -4 -28 -23 -1 -9 -30 -42 -65 -72 -74 -64 -74 -65 -19 -175 54 -106 99
-164 147 -185 46 -21 144 -46 152 -39 2 3 11 36 20 75 8 38 17 80 20 94 5 18
4 21 -3 10 -5 -8 -18 -50 -28 -93 -10 -42 -21 -77 -26 -77 -10 0 -11 -3 6 77
13 59 39 123 114 272 10 20 44 54 81 80 55 40 70 58 108 131 25 47 48 90 52
95 4 6 4 39 1 75 -6 58 -7 60 -8 19 -2 -55 -20 -76 -51 -59 -31 16 -28 63 6
94 15 14 30 23 34 21 4 -3 14 6 23 20 22 33 121 97 101 65 -3 -5 2 -10 13 -10
28 0 52 -32 52 -69 0 -19 4 -30 10 -26 6 3 10 15 10 25 0 23 18 30 46 17 15
-6 28 -6 40 2 17 9 16 10 -7 11 -43 0 -89 12 -89 22 0 5 8 7 18 5 9 -3 35 -8
57 -11 31 -4 35 -3 18 4 -33 13 -28 20 13 20 24 0 33 -4 28 -12 -4 -7 -3 -8 4
-4 16 9 15 49 0 64 -9 9 -9 12 0 12 7 0 12 5 12 10 0 6 -9 10 -20 10 -23 0
-25 -12 -8 -40 7 -10 10 -21 7 -24 -8 -8 -145 -9 -158 -2 -9 6 -9 11 0 22 7 8
20 52 29 96 18 83 16 105 -13 163 -20 38 -30 81 -29 123 0 17 -3 32 -8 32 -13
0 -17 -52 -5 -73 8 -15 2 -26 -40 -63 -27 -24 -53 -44 -56 -44 -4 0 -18 19
-31 41 -22 37 -24 47 -15 93 5 28 14 56 19 61 6 6 8 5 6 -4 -6 -26 44 -36 85
-16 51 24 61 61 51 183 -10 114 -9 131 1 156 6 13 5 17 -2 13 -8 -5 -8 3 0 28
14 47 31 45 22 -2 -8 -40 -8 -198 0 -241 2 -14 -1 -60 -6 -104 -7 -51 -8 -83
-1 -91 5 -6 22 -48 37 -91 25 -74 26 -83 15 -144 -6 -36 -18 -81 -26 -100 -8
-19 -12 -37 -9 -40 3 -3 5 0 5 7 0 7 4 10 9 7 14 -9 44 103 44 164 0 31 -9 80
-20 112 -12 31 -18 60 -15 64 4 4 1 4 -7 -1 -10 -6 -11 -2 -6 15 4 12 3 20 -2
17 -7 -4 -11 361 -5 398 1 6 13 12 25 13 29 2 72 -40 64 -62 -4 -9 -3 -15 1
-15 19 3 33 -2 28 -10 -3 -5 1 -12 10 -15 24 -9 25 -8 13 12 -9 14 -6 25 14
56 15 21 23 44 20 53 -4 9 -2 14 3 11 5 -3 10 15 11 41 l2 46 -14 -52 c-8 -29
-21 -69 -30 -89 l-15 -37 -41 47 c-22 25 -46 46 -53 46 -7 0 -21 9 -31 20 -10
11 -22 20 -26 20 -5 0 -17 -28 -27 -62 -16 -55 -18 -75 -9 -151 9 -79 8 -90
-9 -108 -13 -14 -28 -19 -53 -17 -27 2 -36 -1 -39 -15 -4 -19 26 -36 37 -19 9
16 56 31 69 23 15 -9 3 -25 -35 -45 -62 -31 -88 -14 -97 64 l-7 55 57 2 c107
3 72 18 -44 19 -100 0 -128 4 -197 28 -143 49 -194 102 -180 185 4 26 -2 61
-19 116 -31 96 -32 129 -7 220 11 38 18 71 16 73 -2 2 -6 -6 -10 -17z m236
-628 c20 -17 64 -22 102 -12 23 7 28 5 23 -6 -3 -8 -2 -15 3 -15 6 0 7 -11 2
-52 -1 -3 -23 5 -51 18 -27 13 -56 24 -62 24 -20 1 -49 26 -64 54 -12 25 -12
26 9 15 12 -6 29 -18 38 -26z m299 -53 c0 -5 -4 -10 -10 -10 -5 0 -10 5 -10
10 0 6 5 10 10 10 6 0 10 -4 10 -10z m-85 -19 c3 -5 1 -12 -5 -16 -5 -3 -10 1
-10 9 0 18 6 21 15 7z m81 -247 c16 -39 13 -45 -39 -75 -10 -6 -16 -13 -14
-16 3 -3 21 7 40 21 18 14 37 23 42 18 5 -4 5 -1 1 6 -4 6 -2 12 3 12 13 0 14
-60 1 -80 -5 -8 -13 -11 -17 -6 -4 5 -2 11 5 13 6 3 12 12 12 21 -1 14 -5 12
-20 -6 -20 -24 -20 -24 -82 -8 -41 10 -66 12 -72 6 -20 -20 -26 -8 -26 55 l0
66 30 -31 c27 -27 31 -29 47 -16 47 39 68 55 71 56 2 0 10 -16 18 -36z m-48
-123 c41 -11 76 -22 78 -24 3 -3 0 -26 -7 -51 -9 -37 -15 -46 -28 -40 -53 22
-76 21 -104 -4 -29 -28 -87 -38 -99 -19 -5 8 -8 6 -8 -5 0 -10 -7 -18 -16 -18
-12 0 -15 7 -12 24 4 21 3 23 -13 13 -10 -6 -16 -14 -13 -18 2 -4 0 -10 -6
-14 -5 -3 -8 -16 -4 -29 7 -28 -18 -51 -46 -43 -11 3 -18 1 -15 -4 11 -17 -16
-50 -38 -47 -14 2 -26 -4 -32 -17 -22 -42 -83 -19 -72 27 8 30 34 43 53 27 12
-10 13 -6 10 22 -3 19 1 47 9 64 15 29 15 29 10 3 -3 -14 -8 -34 -12 -45 -6
-16 -5 -16 10 -4 9 7 24 11 32 7 9 -3 15 0 15 9 0 16 29 34 50 32 8 -1 17 3
18 8 2 6 9 19 15 30 13 22 14 27 16 53 1 12 23 30 62 50 34 18 65 32 68 32 3
0 39 -9 79 -19z m-592 -98 c-10 -10 -19 5 -10 18 6 11 8 11 12 0 2 -7 1 -15
-2 -18z m-122 -26 c-4 -7 -16 -25 -27 -41 l-20 -28 -14 26 c-10 20 -11 31 -4
40 14 17 74 19 65 3z m696 -17 c-40 -34 -53 -37 -48 -12 2 9 19 22 38 29 49
17 49 16 10 -17z m-79 -34 c-6 -7 -22 -11 -36 -8 -31 5 -56 -38 -36 -62 8 -10
9 -16 1 -21 -5 -3 -10 -21 -10 -39 0 -43 28 -69 64 -60 18 4 26 2 26 -6 0 -9
-13 -11 -45 -8 -44 5 -58 -3 -32 -19 6 -4 20 -6 29 -5 16 3 16 0 0 -39 -13
-34 -17 -38 -23 -23 -7 17 -8 16 -8 -4 -1 -34 -25 -74 -64 -106 -19 -16 -37
-28 -41 -28 -15 3 -67 -58 -89 -105 -13 -29 -27 -49 -31 -46 -4 4 -4 0 -1 -9
4 -9 2 -19 -4 -22 -6 -4 -8 -13 -5 -20 3 -8 -3 -17 -15 -21 -11 -3 -20 -9 -18
-13 1 -4 -3 -25 -10 -47 -6 -22 -17 -62 -24 -88 -9 -38 -15 -47 -28 -42 -9 4
-23 8 -31 10 -31 7 -90 36 -90 44 0 4 -8 17 -17 29 -50 58 -52 62 -41 62 7 0
2 7 -10 16 -12 8 -20 20 -17 25 4 5 1 9 -4 9 -6 0 -11 6 -11 13 0 7 28 23 62
35 64 23 63 24 87 -17 5 -8 25 -14 46 -14 30 0 43 6 61 28 12 15 27 24 33 21
7 -5 11 2 11 19 0 16 4 24 11 20 6 -4 13 2 16 14 3 11 10 18 16 14 6 -3 7 -1
3 6 -4 6 2 23 14 38 14 18 19 35 15 51 -3 13 -2 21 3 18 5 -3 9 1 9 9 0 8 -2
13 -4 11 -6 -6 -41 28 -36 36 1 3 -5 4 -14 2 -14 -4 -21 4 -29 31 -6 19 -7 35
-3 35 5 0 9 9 9 20 0 22 -4 22 129 20 l94 -1 -15 23 c-68 103 -81 130 -67 139
19 12 69 11 69 0 0 -6 -4 -12 -9 -16 -13 -7 -7 -83 7 -97 18 -18 24 -3 11 25
-7 15 -8 37 -4 54 4 15 7 42 6 59 -3 35 12 50 54 57 17 2 34 5 39 6 5 0 3 -5
-3 -13z m-101 -10 c0 -3 -4 -8 -10 -11 -5 -3 -10 -1 -10 4 0 6 5 11 10 11 6 0
10 -2 10 -4z m110 -16 c-6 -11 -17 -20 -25 -20 -7 0 -15 -5 -17 -12 -2 -6 -12
-9 -21 -5 -24 9 -10 37 18 37 13 0 27 5 30 10 12 20 26 10 15 -10z m-180 -100
c0 -5 11 -26 25 -46 14 -20 25 -40 25 -44 0 -3 -38 -4 -85 -2 -69 4 -89 1
-104 -12 -14 -13 -21 -14 -34 -3 -16 11 -16 14 3 45 16 26 24 31 38 24 22 -11
60 8 54 27 -3 10 0 12 11 8 8 -3 23 0 33 8 19 13 34 11 34 -5z m-414 -368 c-4
-12 4 -29 24 -49 l30 -30 -43 -17 c-23 -9 -46 -16 -50 -16 -12 0 -29 53 -19
59 4 3 18 21 31 39 25 36 35 41 27 14z"/>
<path d="M1500 1289 c0 -5 5 -7 10 -4 6 3 10 8 10 11 0 2 -4 4 -10 4 -5 0 -10
-5 -10 -11z"/>
<path d="M1370 1255 c0 -8 2 -15 4 -15 2 0 6 7 10 15 3 8 1 15 -4 15 -6 0 -10
-7 -10 -15z"/>
<path d="M1406 1255 c-9 -26 -7 -32 5 -12 6 10 9 21 6 23 -2 3 -7 -2 -11 -11z"/>
<path d="M1256 1175 c4 -8 8 -15 10 -15 2 0 4 7 4 15 0 8 -4 15 -10 15 -5 0
-7 -7 -4 -15z"/>
<path d="M1176 1143 c-11 -11 -6 -23 9 -23 8 0 15 4 15 9 0 13 -16 22 -24 14z"/>
<path d="M1113 1095 c-9 -24 1 -27 15 -5 8 13 8 20 2 20 -6 0 -13 -7 -17 -15z"/>
<path d="M1770 2415 c0 -5 5 -17 10 -25 5 -8 10 -10 10 -5 0 6 -5 17 -10 25
-5 8 -10 11 -10 5z"/>
<path d="M2156 2395 c10 -16 33 -57 52 -90 18 -33 30 -49 26 -35 -8 30 -46 96
-75 130 l-21 25 18 -30z"/>
<path d="M2014 2353 c-1 -89 -7 -143 -16 -143 -4 0 -8 -15 -7 -32 1 -32 1 -32
10 -8 7 19 8 15 5 -20 l-5 -45 14 42 c7 23 14 66 15 95 3 100 0 168 -7 168 -5
0 -8 -26 -9 -57z"/>
<path d="M910 2357 c0 -20 4 -37 10 -37 5 0 7 14 3 33 -8 45 -13 47 -13 4z"/>
<path d="M1197 2359 c4 -13 8 -18 11 -10 2 7 -1 18 -6 23 -8 8 -9 4 -5 -13z"/>
<path d="M1827 2373 c-4 -3 -7 -15 -7 -25 0 -14 7 -18 33 -17 l32 1 -28 11
c-16 6 -26 16 -23 24 6 14 3 17 -7 6z"/>
<path d="M1310 2369 c0 -4 7 -19 14 -35 8 -15 13 -31 10 -36 -3 -4 0 -8 5 -8
18 0 12 36 -9 61 -10 13 -19 21 -20 18z"/>
<path d="M1561 2354 c0 -11 3 -14 6 -6 3 7 2 16 -1 19 -3 4 -6 -2 -5 -13z"/>
<path d="M1230 2340 c0 -5 8 -10 18 -10 9 0 29 -7 45 -14 38 -20 34 -10 -5 14
-36 22 -58 26 -58 10z"/>
<path d="M2067 2323 c-3 -10 -11 -49 -17 -88 -7 -38 -24 -101 -37 -138 -26
-73 -33 -199 -14 -250 15 -40 24 -33 16 12 -5 31 1 63 28 143 40 118 60 198
53 206 -8 7 -22 -33 -48 -133 -29 -115 -37 -83 -9 39 24 105 42 218 37 224 -2
2 -6 -5 -9 -15z"/>
<path d="M1747 2293 c-3 -5 1 -17 9 -28 14 -18 14 -18 14 2 0 23 -15 39 -23
26z"/>
<path d="M1150 2280 c0 -5 5 -10 10 -10 6 0 10 5 10 10 0 6 -4 10 -10 10 -5 0
-10 -4 -10 -10z"/>
<path d="M1717 2263 c-12 -11 -8 -23 8 -23 8 0 15 7 15 15 0 16 -12 20 -23 8z"/>
<path d="M1180 2231 c0 -6 5 -13 10 -16 6 -3 10 1 10 9 0 9 -4 16 -10 16 -5 0
-10 -4 -10 -9z"/>
<path d="M1254 2217 c3 -14 4 -31 1 -39 -7 -16 -81 -22 -91 -7 -5 8 -8 8 -14
0 -4 -8 -15 -5 -33 9 -28 22 -39 12 -12 -10 8 -7 13 -15 10 -19 -7 -12 161 -4
182 8 16 9 15 10 -8 11 -22 0 -25 3 -21 29 2 16 -1 32 -8 36 -10 6 -11 1 -6
-18z"/>
<path d="M892 2200 c0 -14 2 -19 5 -12 2 6 2 18 0 25 -3 6 -5 1 -5 -13z"/>
<path d="M1062 2190 c0 -19 2 -27 5 -17 2 9 2 25 0 35 -3 9 -5 1 -5 -18z"/>
<path d="M1217 2214 c-8 -8 1 -24 14 -24 5 0 9 7 9 15 0 15 -12 20 -23 9z"/>
<path d="M1190 2191 c0 -6 4 -13 10 -16 6 -3 7 1 4 9 -7 18 -14 21 -14 7z"/>
<path d="M967 2160 c-3 -11 -1 -20 4 -20 5 0 9 9 9 20 0 11 -2 20 -4 20 -2 0
-6 -9 -9 -20z"/>
<path d="M1413 2167 c-14 -18 -10 -50 7 -55 13 -5 13 -3 1 11 -12 15 -11 17 3
17 9 0 16 6 16 14 0 21 -16 28 -27 13z"/>
<path d="M1321 2109 c-23 -29 -41 -56 -41 -62 0 -6 20 16 45 47 25 32 45 60
45 62 0 11 -12 -1 -49 -47z"/>
<path d="M1983 2107 c0 -21 4 -34 8 -30 5 5 5 22 0 38 -9 30 -9 30 -8 -8z"/>
<path d="M1966 2057 c3 -10 9 -15 12 -12 3 3 0 11 -7 18 -10 9 -11 8 -5 -6z"/>
<path d="M730 2054 c0 -7 9 -22 21 -35 16 -19 18 -20 10 -4 -17 34 -31 51 -31
39z"/>
<path d="M1926 1979 c-16 -33 -44 -84 -64 -112 -19 -29 -36 -68 -38 -87 l-3
-35 10 33 c5 17 37 77 70 132 33 55 59 107 57 115 -2 9 -16 -12 -32 -46z"/>
<path d="M1079 2013 c10 -19 51 -58 86 -83 11 -8 -2 11 -30 42 -50 56 -74 73
-56 41z"/>
<path d="M1934 1943 c-21 -38 -50 -88 -66 -112 -32 -51 -34 -61 -13 -61 18 0
18 -5 4 -31 -6 -12 -17 -18 -25 -15 -20 8 -18 -21 5 -50 24 -30 38 -114 20
-124 -9 -6 -9 -21 -1 -67 6 -32 14 -76 16 -99 3 -22 12 -54 21 -70 l15 -29 1
30 c1 24 3 25 6 8 5 -25 23 -32 23 -9 0 14 20 14 82 1 27 -6 31 -5 21 6 -7 7
-13 36 -13 63 0 56 -40 156 -62 156 -24 0 8 17 100 54 104 42 182 49 225 21
23 -15 51 -66 60 -110 3 -12 5 -6 6 13 1 34 -19 82 -48 116 -15 18 -15 19 24
12 94 -16 123 -80 63 -140 -57 -57 -181 -74 -228 -31 -11 10 -20 13 -20 7 0
-17 66 -48 133 -62 134 -30 257 45 257 158 0 52 -40 92 -124 123 -61 23 -159
29 -241 14 -28 -5 -25 -1 34 54 39 38 82 68 115 80 40 16 45 20 25 20 -34 1
-138 -68 -183 -121 -32 -37 -38 -40 -90 -40 -43 -1 -66 6 -110 31 -31 17 -64
31 -75 31 -33 0 -35 20 -3 53 16 18 39 50 50 72 19 39 44 115 37 115 -2 0 -20
-30 -41 -67z m91 -258 c17 -5 37 -9 45 -9 8 -1 14 -6 13 -13 -2 -7 4 -10 12
-7 18 7 20 21 3 26 -8 3 -6 6 4 10 12 5 17 -1 20 -28 2 -20 0 -37 -4 -40 -4
-3 -8 1 -8 8 0 9 -19 13 -73 13 -59 0 -78 4 -104 23 -18 13 -38 20 -44 16 -7
-4 -9 -3 -5 4 3 6 -2 16 -11 21 -17 10 -17 12 1 25 16 13 24 12 70 -13 28 -16
65 -32 81 -36z m-129 -15 c8 0 13 -4 10 -9 -6 -10 45 -31 75 -31 11 0 19 -5
19 -11 0 -8 5 -8 15 1 10 8 15 9 15 1 0 -12 -49 -39 -93 -52 -32 -9 -64 11
-51 32 4 8 3 9 -4 5 -8 -5 -12 3 -12 23 0 16 -4 33 -10 36 -5 3 -10 13 -10 21
0 14 2 13 16 0 8 -9 22 -16 30 -16z m522 5 c52 -23 61 -31 71 -65 7 -25 8 -47
2 -63 -7 -16 -6 -28 2 -36 7 -7 7 -11 1 -11 -6 0 -19 -8 -30 -19 -31 -28 -64
-44 -64 -30 0 8 -4 8 -15 -1 -9 -7 -18 -11 -21 -8 -8 8 46 39 56 33 5 -3 7 0
4 8 -3 8 0 18 7 23 8 5 10 3 5 -7 -4 -8 0 -5 8 5 30 38 14 105 -34 143 -28 23
-113 44 -124 32 -8 -9 -7 -10 3 -4 10 6 12 4 7 -4 -5 -7 -28 -11 -59 -10 -29
1 -64 -2 -79 -6 -22 -6 -28 -4 -28 9 0 9 5 16 11 16 5 0 8 3 6 8 -3 4 44 9
103 10 100 4 113 2 168 -23z m111 -109 l-1 -41 -8 47 c-5 26 -11 53 -15 60 -3
7 1 4 9 -6 9 -12 16 -37 15 -60z m-584 -39 c-4 -13 0 -42 8 -65 15 -44 12 -53
-8 -25 -14 18 -35 10 -35 -15 0 -9 12 -28 26 -43 19 -20 22 -28 11 -32 -26
-10 -37 9 -53 84 -8 41 -17 82 -20 91 -4 13 3 18 33 21 21 2 39 4 41 5 1 1 0
-8 -3 -21z m43 -72 c-3 -3 -9 2 -12 12 -6 14 -5 15 5 6 7 -7 10 -15 7 -18z
m14 -42 c0 -16 2 -35 3 -43 1 -8 -3 -21 -8 -27 -7 -9 -14 -3 -27 23 -17 33
-18 37 -2 54 24 26 32 24 34 -7z"/>
<path d="M1460 1992 c0 -4 11 -9 26 -10 14 -1 23 2 19 8 -7 12 -45 14 -45 2z"/>
<path d="M1905 1989 c-4 -6 -5 -12 -2 -15 2 -3 7 2 10 11 7 17 1 20 -8 4z"/>
<path d="M951 1949 c-1 -21 29 -122 39 -132 9 -10 -8 64 -26 113 -7 19 -13 28
-13 19z"/>
<path d="M1875 1930 c-9 -16 -13 -30 -11 -30 3 0 12 14 21 30 9 17 13 30 11
30 -3 0 -12 -13 -21 -30z"/>
<path d="M2159 1933 c-13 -16 -12 -17 4 -4 9 7 17 15 17 17 0 8 -8 3 -21 -13z"/>
<path d="M2661 1908 c-11 -17 -11 -22 1 -29 16 -11 38 -12 38 -1 -1 4 -6 17
-13 29 l-12 23 -14 -22z"/>
<path d="M1780 1874 c0 -36 -29 -81 -59 -94 -32 -13 -46 -36 -29 -46 7 -4 8
-3 4 5 -5 7 5 17 28 26 26 11 40 27 56 62 14 32 17 50 10 57 -7 7 -10 3 -10
-10z"/>
<path d="M1832 1864 c-12 -15 -27 -36 -33 -48 -11 -24 35 27 52 57 14 24 8 21
-19 -9z"/>
<path d="M1656 1828 c-8 -13 -17 -39 -21 -58 -5 -31 -3 -37 25 -52 16 -9 30
-14 30 -9 0 4 -12 13 -26 20 -22 10 -25 15 -19 44 4 17 13 42 21 55 8 12 12
22 9 22 -2 0 -11 -10 -19 -22z"/>
<path d="M1126 1810 c10 -54 26 -83 18 -35 -3 22 -10 47 -15 55 -7 10 -8 4 -3
-20z"/>
<path d="M1900 1810 c-6 -11 -8 -20 -6 -20 3 0 10 9 16 20 6 11 8 20 6 20 -3
0 -10 -9 -16 -20z"/>
<path d="M1770 1775 c-13 -15 -3 -25 17 -18 12 5 14 1 9 -15 -4 -11 -2 -23 4
-27 6 -4 9 8 8 33 -1 39 -18 51 -38 27z"/>
<path d="M1723 1753 c-7 -2 -13 -12 -13 -21 0 -10 3 -13 8 -7 9 12 43 19 40 8
-4 -12 38 -63 51 -63 20 0 33 -52 26 -103 -5 -37 -11 -47 -22 -43 -9 4 -19 -5
-28 -27 -8 -17 -14 -28 -15 -23 0 5 -9 -1 -19 -13 -13 -15 -22 -18 -26 -11 -4
6 1 18 11 25 15 11 16 14 4 15 -38 0 -41 -15 -11 -70 l30 -54 -4 44 c-3 25 -2
37 1 26 5 -15 10 -10 27 25 11 24 19 48 18 52 -1 5 3 6 9 2 6 -4 0 -26 -16
-57 -24 -47 -25 -55 -14 -89 7 -21 10 -52 6 -72 -3 -19 -2 -45 3 -58 6 -17 9
10 8 89 -2 90 1 115 13 122 8 5 12 10 8 10 -4 0 0 19 9 42 9 24 17 67 18 96 0
47 -4 57 -30 81 -16 14 -38 39 -48 54 -18 27 -22 29 -44 20z"/>
<path d="M962 1692 c-10 -7 -10 -15 -2 -36 13 -35 13 -79 0 -71 -5 3 -10 17
-10 30 0 31 -10 55 -22 55 -6 0 -7 -11 -4 -24 3 -14 2 -27 -3 -30 -5 -3 -12 5
-15 19 -11 44 -23 27 -18 -25 4 -43 2 -50 -13 -50 -15 0 -17 6 -11 42 6 35 5
39 -8 29 -8 -7 -16 -25 -18 -39 l-4 -27 -12 29 c-16 38 -33 23 -39 -36 -5 -39
-2 -45 20 -57 15 -8 23 -19 20 -27 -3 -8 0 -14 7 -14 6 0 10 10 8 23 -2 12
-10 22 -18 22 -9 0 -16 11 -18 28 -2 15 1 27 7 27 6 0 11 -7 11 -15 0 -8 5
-15 11 -15 6 0 9 7 5 15 -4 12 -2 13 13 3 10 -6 30 -8 45 -4 24 6 27 11 22 31
-4 14 -2 25 4 25 5 0 10 -7 10 -15 0 -16 28 -19 68 -9 25 7 30 24 7 24 -15 0
-20 25 -17 78 1 23 -5 27 -26 14z"/>
<path d="M1024 1689 c-3 -6 0 -15 7 -20 14 -8 32 9 23 23 -7 11 -22 10 -30 -3z"/>
<path d="M1071 1663 c0 -11 3 -13 6 -5 2 6 9 10 14 6 5 -3 9 0 9 5 0 6 -7 11
-15 11 -8 0 -15 -8 -14 -17z"/>
<path d="M1743 1652 c32 -40 32 -42 7 -92 -12 -24 -16 -41 -10 -45 6 -3 10 2
10 12 0 11 7 28 15 39 23 30 18 58 -17 90 l-32 29 27 -33z"/>
<path d="M645 1605 c-22 -8 -41 -15 -42 -15 -6 0 -3 -40 3 -40 3 0 18 9 32 19
l27 19 -3 -49 c-3 -36 -10 -53 -25 -64 -15 -11 -18 -18 -10 -26 7 -7 25 -2 62
18 52 29 70 60 29 50 -21 -5 -23 -2 -25 33 -1 22 2 42 7 45 14 9 12 25 -2 25
-7 -1 -31 -7 -53 -15z"/>
<path d="M1456 1596 c6 -25 4 -28 -10 -23 -14 6 -13 1 4 -33 20 -40 32 -52 28
-27 -2 6 4 12 12 11 9 -1 16 7 16 17 0 10 -3 16 -7 13 -11 -7 -20 29 -10 39 6
6 17 -2 30 -24 25 -41 27 -33 4 16 -19 39 -28 43 -38 18 -6 -17 -8 -17 -21 2
-15 19 -15 18 -8 -9z m27 -41 c8 -19 -13 -31 -23 -14 -9 14 -4 29 10 29 4 0
10 -7 13 -15z"/>
<path d="M723 1588 c-28 -13 -30 -32 -4 -25 21 5 31 -10 31 -44 0 -10 5 -19
11 -19 8 0 10 13 6 37 -4 21 -2 42 5 50 13 16 -16 17 -49 1z"/>
<path d="M917 1534 c-9 -9 4 -35 14 -28 5 3 6 -3 2 -12 -4 -12 -3 -15 5 -10 7
4 12 12 12 17 0 14 -26 39 -33 33z"/>
<path d="M1211 1530 c0 -8 4 -22 9 -30 12 -18 12 -2 0 25 -6 13 -9 15 -9 5z"/>
<path d="M872 1509 c-21 -8 -28 -32 -9 -30 4 1 19 1 35 1 15 0 22 4 16 8 -6 4
-13 12 -15 18 -3 8 -12 9 -27 3z"/>
<path d="M750 1468 c-11 -18 -20 -38 -20 -44 0 -18 -27 -37 -35 -24 -10 16
-46 12 -101 -14 -50 -23 -71 -42 -61 -53 8 -7 75 16 79 28 2 5 22 11 45 13 30
2 40 0 36 -10 -7 -19 -34 -26 -51 -12 -13 11 -14 11 -7 -1 6 -11 4 -13 -8 -8
-11 4 -24 -3 -37 -21 -25 -31 -11 -41 25 -18 15 10 25 12 25 6 0 -7 5 -8 13
-3 6 4 15 8 19 8 3 0 18 10 33 23 14 12 29 21 33 18 4 -2 21 7 37 21 21 17 26
26 17 30 -10 4 -8 9 6 19 20 14 20 60 1 48 -5 -3 -6 2 -3 10 12 30 -26 17 -46
-16z m23 -33 c-3 -9 -8 -14 -10 -11 -3 3 -2 9 2 15 9 16 15 13 8 -4z"/>
<path d="M1211 1380 c-12 -34 -21 -68 -19 -78 2 -9 10 7 18 36 8 28 17 52 21
52 3 0 7 11 7 25 0 14 -2 25 -3 25 -1 0 -12 -27 -24 -60z"/>
<path d="M1766 1347 c3 -10 9 -15 12 -12 3 3 0 11 -7 18 -10 9 -11 8 -5 -6z"/>
<path d="M2150 1353 c-8 -3 -37 -16 -63 -29 -29 -14 -67 -24 -93 -24 -24 0
-44 -5 -44 -11 0 -5 -5 -7 -12 -3 -7 4 -8 3 -4 -5 6 -9 11 -9 22 0 9 7 38 9
86 5 55 -4 67 -3 48 5 -24 10 -24 10 19 30 24 11 46 17 48 15 3 -2 -5 -7 -16
-11 -24 -7 -29 -32 -7 -32 8 0 14 5 13 10 -1 5 4 12 12 15 8 3 11 0 7 -7 -4
-6 -3 -11 3 -11 5 0 37 -41 70 -90 l60 -91 -33 -92 c-47 -129 -47 -128 -59
-120 -6 3 -7 1 -3 -6 5 -7 -2 -43 -15 -81 -20 -60 -25 -68 -38 -57 -14 10 -14
10 -4 -3 6 -8 13 -26 15 -40 1 -14 9 -31 16 -38 14 -16 16 -46 2 -37 -6 4 -7
-1 -3 -11 4 -12 3 -15 -5 -10 -8 5 -10 2 -6 -9 5 -13 -2 -12 -42 6 -27 11 -64
30 -82 41 l-33 20 30 25 c17 14 28 29 25 34 -3 5 0 9 6 9 6 0 9 4 5 9 -3 5 5
11 17 13 16 2 22 9 20 22 -2 10 1 15 7 12 5 -4 9 2 8 14 -1 11 -5 20 -10 20
-4 0 -5 6 -1 13 4 6 3 9 -1 4 -5 -4 -22 13 -37 39 -23 35 -41 51 -86 71 -85
37 -148 95 -169 154 -10 27 -21 49 -25 49 -5 0 -8 7 -8 16 0 9 5 12 12 8 7 -4
8 -3 4 4 -4 7 -11 12 -17 12 -13 0 -11 -34 2 -47 8 -8 5 -25 -12 -62 -12 -29
-26 -46 -29 -40 -5 7 -9 5 -13 -6 -4 -9 -3 -13 3 -10 22 14 8 -12 -30 -55 -21
-24 -38 -45 -36 -47 1 -2 28 6 60 17 59 20 105 15 107 -12 1 -7 3 -26 5 -43 2
-16 -3 -40 -11 -52 -8 -12 -15 -31 -15 -42 0 -26 25 -83 33 -74 4 3 7 2 7 -4
0 -6 17 -10 38 -10 29 0 51 -9 93 -40 62 -46 131 -83 154 -83 17 0 20 -15 6
-25 -5 -3 -12 -19 -16 -35 -4 -17 -11 -28 -16 -24 -5 3 -9 -3 -9 -13 -1 -15
-74 -83 -98 -90 -7 -2 -15 11 -88 132 -19 33 -42 64 -50 68 -8 5 -12 13 -8 18
3 5 -8 14 -25 20 -17 6 -31 14 -31 18 0 4 -9 7 -20 8 -11 1 -33 11 -49 22 -15
11 -31 18 -35 14 -3 -3 -6 -1 -6 5 0 7 -7 12 -15 12 -23 0 -107 55 -98 64 5 4
3 7 -2 6 -43 -9 -73 26 -79 89 -2 22 -7 44 -10 49 -7 12 29 25 64 24 35 -1 84
63 76 100 -6 32 9 38 73 26 44 -8 62 0 60 27 0 6 -3 4 -6 -2 -6 -16 -73 -17
-73 -2 0 5 -5 7 -10 4 -6 -4 -18 -1 -26 6 -12 10 -13 9 -8 -7 4 -10 4 -16 -1
-12 -14 13 -33 -18 -28 -45 7 -34 -38 -81 -70 -74 -12 3 -31 -1 -41 -8 -10 -8
-24 -12 -29 -8 -6 4 -8 0 -5 -9 4 -8 9 -40 13 -70 4 -30 10 -60 13 -65 13 -20
148 -101 242 -146 52 -24 106 -57 120 -72 45 -48 138 -219 127 -233 -5 -6 -15
-12 -21 -12 -6 0 -4 5 4 10 14 9 7 14 -13 11 -7 -1 -34 60 -37 87 -1 4 -8 11
-16 15 -8 4 -14 17 -14 28 0 11 -4 18 -9 14 -5 -3 -12 4 -16 14 -10 33 -74 76
-200 136 -66 32 -124 60 -129 63 -5 3 -6 0 -2 -7 7 -11 159 -88 219 -110 27
-10 31 -21 27 -73 -1 -15 4 -37 11 -50 8 -13 13 -26 14 -30 0 -3 3 -10 7 -13
9 -9 -9 -45 -22 -45 -11 0 -25 40 -21 59 2 13 0 13 -13 2 -10 -9 -13 -18 -8
-25 5 -6 12 -23 15 -37 9 -34 -20 -49 -93 -47 -67 1 -81 11 -74 48 3 15 1 37
-5 48 -7 14 -8 29 -1 46 8 22 16 26 52 27 24 0 52 5 63 10 22 10 -69 5 -117
-7 -24 -5 -29 -2 -38 22 -6 15 -16 64 -22 108 -8 62 -17 88 -36 111 -14 17
-30 30 -35 30 -8 0 -60 -197 -54 -201 26 -14 97 -66 106 -78 10 -12 18 -13 32
-6 21 12 24 5 34 -92 4 -32 13 -62 22 -69 8 -8 40 -15 70 -17 50 -3 61 0 110
33 29 20 56 42 59 50 3 7 -4 35 -15 61 -12 25 -21 61 -21 78 l1 31 34 -40 c19
-22 55 -79 80 -127 53 -100 43 -99 144 -16 51 42 73 69 102 128 65 127 65 127
40 154 l-23 24 54 16 c53 16 102 53 132 99 15 22 15 39 -5 208 -13 113 -28
200 -39 226 -13 29 -15 45 -8 49 6 4 -6 15 -27 25 -37 18 -103 24 -135 12z
m55 -20 c6 -1 17 -4 25 -5 26 -6 40 -18 56 -50 16 -30 33 -149 20 -137 -14 13
-136 195 -136 202 0 5 6 5 13 0 6 -4 17 -9 22 -10z m134 -223 c1 -12 -1 -12
-14 1 -10 10 -13 22 -9 34 7 18 8 18 15 -1 4 -10 8 -26 8 -34z m-462 -82 l57
-58 -22 -23 c-28 -29 -28 -71 -2 -90 22 -15 17 -29 -7 -20 -17 6 -43 -21 -43
-44 0 -22 38 -36 71 -24 23 8 29 7 29 -4 0 -19 -62 -30 -89 -16 -36 20 -40
101 -5 101 11 0 12 4 4 19 -16 31 -12 51 18 79 l27 27 -57 57 c-32 32 -58 53
-58 48 0 -5 5 -12 10 -15 6 -4 8 -10 5 -15 -3 -5 4 -11 15 -15 18 -6 25 -23
21 -48 -1 -5 3 -6 9 -2 17 11 31 -5 17 -19 -10 -11 -16 -11 -37 4 -26 18 -93
33 -84 18 3 -4 1 -8 -5 -8 -5 0 -18 -3 -28 -7 -14 -5 -11 1 10 26 15 18 27 36
27 40 0 4 9 18 20 31 11 13 20 32 21 44 0 19 1 18 10 -4 6 -14 35 -51 66 -82z
m448 40 c15 -94 25 -166 25 -190 0 -36 -65 -107 -105 -114 -17 -3 -38 -12 -47
-21 -27 -25 -30 -12 -9 43 27 69 75 199 97 262 10 28 22 52 26 52 4 0 10 -15
13 -32z m-258 -172 c8 -17 21 -38 28 -46 17 -20 3 -56 -24 -65 -12 -3 -19 -10
-16 -15 3 -5 -5 -20 -18 -35 -18 -21 -28 -25 -50 -20 -15 4 -27 13 -27 21 0
11 5 11 25 2 29 -13 55 3 55 33 0 11 4 19 9 19 16 0 41 30 40 48 0 12 -3 11
-9 -5 -5 -13 -18 -23 -29 -23 -14 0 -21 -8 -23 -27 -4 -36 -46 -46 -55 -14 -4
18 -11 20 -49 14 -39 -5 -44 -4 -44 14 0 31 13 36 32 11 l18 -23 0 22 c0 12 4
25 10 28 5 3 -2 16 -16 29 -30 25 -27 53 8 85 19 19 21 19 69 -1 35 -15 55
-31 66 -52z m-569 -160 c1 -6 6 -31 11 -56 18 -84 21 -131 7 -123 -49 31 -96
70 -96 83 0 13 1 13 11 0 8 -12 10 -10 5 10 -3 14 0 41 6 60 6 19 12 41 14 48
3 10 8 10 22 1 10 -7 19 -17 20 -23z"/>
<path d="M2200 1321 c0 -6 4 -13 10 -16 6 -3 7 1 4 9 -7 18 -14 21 -14 7z"/>
<path d="M1938 903 c7 -3 16 -2 19 1 4 3 -2 6 -13 5 -11 0 -14 -3 -6 -6z"/>
<path d="M1981 887 c2 -1 13 -9 24 -17 19 -14 19 -14 6 3 -7 9 -18 17 -24 17
-6 0 -8 -1 -6 -3z"/>
<path d="M1935 870 c4 -6 11 -8 16 -5 14 9 11 15 -7 15 -8 0 -12 -5 -9 -10z"/>
<path d="M2021 847 c2 -1 13 -9 24 -17 19 -14 19 -14 6 3 -7 9 -18 17 -24 17
-6 0 -8 -1 -6 -3z"/>
<path d="M1990 795 c7 -8 16 -12 21 -9 16 9 10 20 -12 21 -17 2 -18 -1 -9 -12z"/>
<path d="M1180 1274 c0 -5 7 -18 15 -28 8 -11 15 -16 15 -10 0 5 -7 18 -15 28
-8 11 -15 16 -15 10z"/>
<path d="M1952 1225 c0 -16 2 -22 5 -12 2 9 2 23 0 30 -3 6 -5 -1 -5 -18z"/>
<path d="M2163 1228 c-21 -42 -24 -65 -9 -77 11 -9 18 -4 35 25 22 36 22 38 3
56 -18 18 -19 18 -29 -4z m27 -17 c0 -6 -4 -13 -10 -16 -5 -3 -10 1 -10 9 0 9
5 16 10 16 6 0 10 -4 10 -9z m-20 -41 c0 -5 -4 -10 -10 -10 -5 0 -10 5 -10 10
0 6 5 10 10 10 6 0 10 -4 10 -10z"/>
<path d="M641 1204 c0 -11 3 -14 6 -6 3 7 2 16 -1 19 -3 4 -6 -2 -5 -13z"/>
<path d="M1060 1201 c-5 -11 -9 -35 -9 -53 1 -32 2 -32 8 7 4 22 10 46 14 53
5 6 6 12 3 12 -3 0 -10 -9 -16 -19z"/>
<path d="M1494 1167 c-36 -30 -39 -35 -36 -77 5 -105 21 -133 52 -95 7 9 22
12 40 9 35 -7 65 28 49 57 -5 10 -7 30 -3 43 9 36 -4 64 -35 80 -26 14 -30 13
-67 -17z m76 -7 c19 -19 22 -43 7 -67 -4 -7 -2 -21 5 -32 11 -17 10 -23 -5
-38 -14 -14 -21 -15 -36 -6 -15 10 -20 9 -25 -2 -8 -23 -33 -18 -40 8 -3 12
-6 41 -6 64 0 46 -3 45 83 28 9 -2 17 0 17 5 0 11 -27 20 -63 20 l-32 0 30 20
c37 25 40 25 65 0z"/>
<path d="M1923 1155 c0 -22 2 -30 4 -17 2 12 2 30 0 40 -3 9 -5 -1 -4 -23z"/>
<path d="M1951 1174 c0 -11 3 -14 6 -6 3 7 2 16 -1 19 -3 4 -6 -2 -5 -13z"/>
<path d="M1760 1163 c0 -4 5 -15 10 -23 8 -13 10 -13 10 2 0 9 -4 20 -10 23
-5 3 -10 3 -10 -2z"/>
<path d="M1736 1142 c-3 -5 1 -9 9 -9 8 0 12 4 9 9 -3 4 -7 8 -9 8 -2 0 -6 -4
-9 -8z"/>
<path d="M1940 1115 c0 -14 2 -25 4 -25 2 0 6 11 8 25 3 14 1 25 -3 25 -5 0
-9 -11 -9 -25z"/>
<path d="M1042 1090 c0 -14 2 -19 5 -12 2 6 2 18 0 25 -3 6 -5 1 -5 -13z"/>
<path d="M1037 933 c-3 -5 3 -17 14 -26 23 -20 24 -45 3 -75 -18 -26 -7 -30
12 -4 7 9 14 29 14 43 0 30 -33 78 -43 62z"/>
<path d="M1408 869 c-30 -65 -44 -83 -94 -120 -83 -60 -114 -90 -114 -108 1
-11 5 -9 13 7 7 12 17 19 22 15 4 -4 5 -3 2 3 -4 6 9 19 28 30 19 10 35 21 35
24 0 3 16 14 35 24 19 10 37 27 41 38 3 10 10 15 16 12 6 -4 8 -2 4 4 -3 6 -2
13 4 17 6 4 8 11 5 16 -4 5 -2 9 3 9 5 0 13 17 19 38 l10 37 2 -35 c2 -42 21
-80 20 -40 0 14 -4 43 -8 65 l-7 40 -36 -76z"/>
<path d="M1020 904 c0 -6 7 -19 16 -30 14 -18 14 -18 3 6 -14 31 -19 36 -19
24z"/>
<path d="M1045 780 c3 -5 8 -10 11 -10 2 0 4 5 4 10 0 6 -5 10 -11 10 -5 0 -7
-4 -4 -10z"/>
<path d="M950 689 c0 -5 5 -7 10 -4 6 3 10 8 10 11 0 2 -4 4 -10 4 -5 0 -10
-5 -10 -11z"/>
<path d="M1173 571 c-12 -28 -19 -60 -16 -71 3 -11 0 -41 -6 -66 -10 -40 -10
-48 5 -58 11 -9 21 -45 31 -122 9 -60 16 -118 17 -129 1 -17 7 -19 37 -17 23
3 40 -2 48 -11 11 -14 6 -15 -43 -10 -35 4 -56 2 -56 -4 0 -12 96 -27 110 -18
23 14 -3 96 -35 108 -8 4 -23 -2 -34 -14 -18 -20 -18 -19 -25 18 -11 70 -8
103 12 103 9 0 31 10 47 21 17 12 21 18 10 14 -11 -4 -29 -10 -40 -13 -11 -2
-26 -9 -32 -15 -10 -7 -13 -3 -13 16 0 14 -3 33 -7 43 -5 14 -3 16 13 9 39
-16 74 -17 123 0 28 9 53 20 56 25 3 4 7 59 10 122 4 100 3 111 -10 94 -14
-18 -19 -39 -16 -59 1 -4 -7 -4 -16 2 -20 10 -93 23 -93 16 0 -2 24 -11 53
-20 84 -25 88 -30 47 -66 l-35 -31 28 6 c26 6 27 5 23 -21 -2 -15 -5 -31 -5
-35 -1 -4 -8 -4 -18 -1 -11 4 -14 3 -9 -6 5 -8 3 -11 -5 -10 -8 1 -27 -3 -43
-10 -22 -9 -37 -9 -65 0 -58 19 -62 24 -43 75 18 48 22 51 55 29 19 -12 29
-12 63 -2 49 14 59 31 24 35 -14 2 -32 9 -40 16 -30 25 -45 30 -26 8 10 -12
28 -24 39 -28 16 -5 17 -8 6 -15 -17 -11 -59 -12 -59 -1 0 4 -12 9 -27 10 -49
4 -57 23 -33 70 12 23 20 46 18 52 -2 6 -13 -11 -25 -39z"/>
<path d="M1676 499 c-27 -16 -47 -32 -45 -34 5 -4 87 14 114 26 16 7 13 9 -12
6 -31 -3 -32 -3 -16 15 23 25 14 23 -41 -13z"/>
<path d="M1797 373 c-8 -14 -39 -231 -35 -244 2 -7 12 39 22 102 9 63 19 122
21 132 3 18 -1 22 -8 10z"/>
<path d="M1323 246 c-7 -60 -11 -111 -9 -113 8 -8 28 134 24 177 -2 34 -6 19
-15 -64z"/>
<path d="M1622 310 c-1 -33 23 -169 32 -177 10 -10 6 26 -14 117 -10 47 -18
74 -18 60z"/>
<path d="M1731 309 c-18 -17 -31 -20 -59 -16 l-37 5 30 -13 c41 -19 47 -18 73
16 28 34 25 37 -7 8z"/>
<path d="M1675 136 c-14 -18 -25 -38 -25 -44 0 -11 109 -21 116 -10 6 9 -37
76 -53 82 -7 3 -24 -10 -38 -28z m70 -36 c4 -6 -12 -10 -40 -10 -28 0 -44 4
-40 10 3 6 21 10 40 10 19 0 37 -4 40 -10z"/>
</g>
</svg>
